<mxfile host="app.diagrams.net" modified="2024-06-24T01:02:56.472Z" agent="Mozilla/5.0 (Macintosh; Intel Mac OS X 10_15_7) AppleWebKit/605.1.15 (KHTML, like Gecko) Version/17.5 Safari/605.1.15" version="24.6.2" etag="WZuv5h5sKXNVoexUv_pZ" type="github">
  <diagram name="第 1 页" id="JkfuHMobFI_QwDg1yRtL">
    <mxGraphModel>
      <root>
        <mxCell id="0" />
        <mxCell id="1" parent="0" />
      </root>
    </mxGraphModel>
  </diagram>
</mxfile>
